/vscmnt/brussel_pixiu_data/_data_brussel/112/vsc11236/PredSimResults/SUBJ07opt3D/weighted-LRposFixed/expIG/worker_02.mot
version=1
nRows=7
nColumns=50
inDegrees=yes
endheader
                time	         pelvis_tilt	         pelvis_list	     pelvis_rotation	           pelvis_tx	           pelvis_ty	           pelvis_tz	       hip_flexion_r	     hip_adduction_r	      hip_rotation_r	        knee_angle_r	       ankle_angle_r	         mtp_angle_r	       hip_flexion_l	     hip_adduction_l	      hip_rotation_l	        knee_angle_l	       ankle_angle_l	         mtp_angle_l	    lumbar_extension	      lumbar_bending	     lumbar_rotation	 ercspn_r/activation	 intobl_r/activation	 extobl_r/activation	    abd_r/activation	    add_r/activation	hamstrings_r/activation	bifemsh_r/activation	glut_max_r/activation	iliopsoas_r/activation	rect_fem_r/activation	  vasti_r/activation	gastroc_r/activation	 soleus_r/activation	tib_ant_r/activation	 ercspn_l/activation	 intobl_l/activation	 extobl_l/activation	    abd_l/activation	    add_l/activation	hamstrings_l/activation	bifemsh_l/activation	glut_max_l/activation	iliopsoas_l/activation	rect_fem_l/activation	  vasti_l/activation	gastroc_l/activation	 soleus_l/activation	tib_ant_l/activation	
          0.00000000	         -4.34328763	         -0.29103369	          9.11757004	          0.00000000	          0.84612946	         -0.01305403	         31.15958986	         -2.58139038	         -5.65947975	         -7.95683881	          2.95704296	          0.28091672	        -15.09554092	         -0.31885470	          4.93262418	         -8.80431040	          7.51134793	         29.57512745	        -12.11646753	         -1.13970468	         -1.80227636	          0.12572740	          0.12991269	          0.00999999	          0.01449568	          0.17695041	          0.09262737	          0.12265468	          0.10494365	          0.04389063	          0.01000000	          0.00999999	          0.00999999	          0.00999999	          0.43308850	          0.11744775	          0.00999999	          0.00999999	          0.03127356	          0.05270282	          0.01823879	          0.16661177	          0.01929738	          0.38441122	          0.01178621	          0.01087879	          0.16537161	          0.31268129	          0.01741477	
          0.01071734	         -4.32917530	         -0.25405008	          9.17578184	          0.01646295	          0.84440156	         -0.01265661	         31.09246673	         -2.38543394	         -5.30359780	         -9.81640765	          2.57714871	          0.25759250	        -15.58529735	         -0.42451565	          4.63349465	         -9.91559237	          6.52641377	         31.16536132	        -11.96749765	         -0.78674176	         -1.98817566	          0.10667318	          0.13143032	          0.00999999	          0.01229884	          0.16269642	          0.08053821	          0.10888242	          0.16762204	          0.03723892	          0.00999999	          0.00999999	          0.01389149	          0.01178621	          0.47935081	          0.14086912	          0.00999999	          0.00999999	          0.02653400	          0.08215264	          0.01547472	          0.14136146	          0.01637283	          0.35856714	          0.00999999	          0.00999999	          0.14030924	          0.29166356	          0.01477553	
          0.02143469	         -4.31018381	         -0.20656236	          9.17878929	          0.03303624	          0.84288963	         -0.01219333	         30.89467234	         -2.23007536	         -4.93551763	        -11.48694691	          2.14310431	          0.24848129	        -15.86709653	         -0.49299763	          4.28139270	        -11.42126728	          5.44725074	         32.69657589	        -11.82193815	         -0.44077401	         -2.16103291	          0.13725641	          0.11151182	          0.00999999	          0.09432010	          0.17759349	          0.07061024	          0.10066850	          0.17669074	          0.03159530	          0.00999999	          0.00999999	          0.01178621	          0.00999999	          0.56203837	          0.16280666	          0.00999999	          0.00999999	          0.02251272	          0.07391389	          0.01313037	          0.11993788	          0.01389149	          0.32016845	          0.00999999	          0.00999999	          0.11904511	          0.26890998	          0.01253627	
          0.03215203	         -4.28799146	         -0.13924178	          9.12858151	          0.04953100	          0.84174506	         -0.01164122	         30.65114433	         -2.08848255	         -4.63848208	        -13.06003500	          1.68870583	          0.22605960	        -15.88297997	         -0.51635461	          3.88675541	        -13.38570070	          4.23662253	         34.09758326	        -11.69929406	         -0.11396913	         -2.31935372	          0.15471050	          0.09461200	          0.00999999	          0.14992653	          0.19020844	          0.05990913	          0.08541201	          0.20925773	          0.02680697	          0.00999999	          0.00999999	          0.00999999	          0.00999999	          0.58729195	          0.20061304	          0.00999999	          0.00999999	          0.01910088	          0.07360721	          0.01494198	          0.10176109	          0.01178621	          0.27164633	          0.00999999	          0.00999999	          0.10100361	          0.23218599	          0.01063637	
          0.04286938	         -4.26295454	         -0.06148741	          9.03065493	          0.06578082	          0.84111569	         -0.01101293	         30.44816152	         -1.95507803	         -4.39925072	        -14.72987338	          1.52449111	          0.20131200	        -15.57966957	         -0.50569973	          3.45960056	        -15.86970043	          2.90463411	         35.18626352	        -11.61029242	          0.20436049	         -2.46001847	          0.16363271	          0.08027337	          0.00999999	          0.19315720	          0.20968167	          0.05082980	          0.07246766	          0.23539577	          0.02274432	          0.00999999	          0.02872896	          0.00999999	          0.00999999	          0.57819440	          0.24480827	          0.00999999	          0.00999999	          0.01620610	          0.09053199	          0.01597752	          0.08899928	          0.00999999	          0.23047783	          0.00999999	          0.00999999	          0.08569632	          0.19699777	          0.00999999	
          0.05358672	         -4.23640468	          0.02127810	          8.88681676	          0.08166115	          0.84114127	         -0.01032213	         30.29983607	         -1.82695450	         -4.21433086	        -16.50451240	          1.70662374	          0.17902057	        -14.90790147	         -0.46770929	          3.00350664	        -18.92771940	          1.46336603	         35.71970867	        -11.55991011	          0.51791043	         -2.58015509	          0.17457752	          0.06810780	          0.00999999	          0.21291958	          0.23066528	          0.04534059	          0.06148505	          0.24507134	          0.01929738	          0.00999999	          0.05799114	          0.00999999	          0.00999999	          0.53221614	          0.27161724	          0.00999999	          0.00999999	          0.01375004	          0.12156632	          0.01724364	          0.07551130	          0.00999999	          0.19554849	          0.00999999	          0.00999999	          0.07270889	          0.16714240	          0.00999999	
          0.06430406	         -4.20968600	          0.10901163	          8.69882215	          0.09716757	          0.84185430	         -0.00958874	         30.13624608	         -1.69781368	         -4.06375981	        -18.24442046	          2.20786022	          0.17332542	        -13.85337332	         -0.40720413	          2.53294307	        -22.54888143	         -0.16025036	         35.57895885	        -11.53864171	          0.82415635	         -2.67798879	          0.16287316	          0.05778593	          0.00999999	          0.21787948	          0.24061267	          0.04294048	          0.05216688	          0.23850580	          0.01637283	          0.00999999	          0.09708841	          0.00999999	          0.00999999	          0.45155781	          0.28953186	          0.00999999	          0.00999999	          0.01166619	          0.14843425	          0.01678824	          0.06483224	          0.00999999	          0.16591276	          0.00999999	          0.00999999	          0.06168972	          0.14181166	          0.00999999	
